%FSLAX45Y45*%
G04 Gerber Fmt 4.5, Leading zero omitted, Abs format (unit mm)*
G04 Created by KiCad (PCBNEW 4.0.4-stable) date Tuesday, 29 November 2016 'PMt' 01:41:12 PM*
%MOMM*%
%LPD*%
G01*
G04 APERTURE LIST*
%ADD10C,0.127000*%
%ADD11C,0.150000*%
%ADD12C,0.200000*%
%ADD13C,0.300000*%
G04 APERTURE END LIST*
D10*
D11*
X9080000Y-11980000D02*
X9080000Y-12030000D01*
X11180000Y-11980000D02*
X9080000Y-11980000D01*
X11180000Y-12030000D02*
X11180000Y-11980000D01*
X9080000Y-12040000D02*
X9080000Y-12770000D01*
X11180000Y-12760000D02*
X11180000Y-12040000D01*
X9080000Y-13100000D02*
X9080000Y-12770000D01*
X9250000Y-13100000D02*
X9080000Y-13100000D01*
X11180000Y-13100000D02*
X11180000Y-12760000D01*
X11050000Y-13100000D02*
X11180000Y-13100000D01*
X11050000Y-13100000D02*
X9250000Y-13100000D01*
D12*
X9360000Y-12320000D02*
X9400000Y-12360000D01*
X9400000Y-12320000D02*
X9360000Y-12360000D01*
X9580000Y-12320000D02*
X9620000Y-12360000D01*
X9620000Y-12320000D02*
X9580000Y-12360000D01*
X10240000Y-12180000D02*
X10280000Y-12220000D01*
X10280000Y-12180000D02*
X10240000Y-12220000D01*
X10660000Y-12320000D02*
X10700000Y-12360000D01*
X10700000Y-12320000D02*
X10660000Y-12360000D01*
X10880000Y-12320000D02*
X10920000Y-12360000D01*
X10920000Y-12320000D02*
X10880000Y-12360000D01*
X9300800Y-12920000D02*
G75*
G03X9300800Y-12920000I-50800J0D01*
G01*
X9554800Y-12920000D02*
G75*
G03X9554800Y-12920000I-50800J0D01*
G01*
X9808800Y-12920000D02*
G75*
G03X9808800Y-12920000I-50800J0D01*
G01*
X10062800Y-12920000D02*
G75*
G03X10062800Y-12920000I-50800J0D01*
G01*
X10316800Y-12920000D02*
G75*
G03X10316800Y-12920000I-50800J0D01*
G01*
X10570800Y-12920000D02*
G75*
G03X10570800Y-12920000I-50800J0D01*
G01*
X10824800Y-12920000D02*
G75*
G03X10824800Y-12920000I-50800J0D01*
G01*
X11078800Y-12920000D02*
G75*
G03X11078800Y-12920000I-50800J0D01*
G01*
D13*
X9343929Y-13573214D02*
X9343929Y-13273214D01*
X9415357Y-13273214D01*
X9458214Y-13287500D01*
X9486786Y-13316071D01*
X9501071Y-13344643D01*
X9515357Y-13401786D01*
X9515357Y-13444643D01*
X9501071Y-13501786D01*
X9486786Y-13530357D01*
X9458214Y-13558929D01*
X9415357Y-13573214D01*
X9343929Y-13573214D01*
X9643929Y-13573214D02*
X9643929Y-13373214D01*
X9643929Y-13430357D02*
X9658214Y-13401786D01*
X9672500Y-13387500D01*
X9701071Y-13373214D01*
X9729643Y-13373214D01*
X9829643Y-13573214D02*
X9829643Y-13373214D01*
X9829643Y-13273214D02*
X9815357Y-13287500D01*
X9829643Y-13301786D01*
X9843929Y-13287500D01*
X9829643Y-13273214D01*
X9829643Y-13301786D01*
X10015357Y-13573214D02*
X9986786Y-13558929D01*
X9972500Y-13530357D01*
X9972500Y-13273214D01*
X10172500Y-13573214D02*
X10143929Y-13558929D01*
X10129643Y-13530357D01*
X10129643Y-13273214D01*
X10515357Y-13573214D02*
X10515357Y-13273214D01*
X10615357Y-13487500D01*
X10715357Y-13273214D01*
X10715357Y-13573214D01*
X10986786Y-13573214D02*
X10986786Y-13416071D01*
X10972500Y-13387500D01*
X10943929Y-13373214D01*
X10886786Y-13373214D01*
X10858214Y-13387500D01*
X10986786Y-13558929D02*
X10958214Y-13573214D01*
X10886786Y-13573214D01*
X10858214Y-13558929D01*
X10843929Y-13530357D01*
X10843929Y-13501786D01*
X10858214Y-13473214D01*
X10886786Y-13458929D01*
X10958214Y-13458929D01*
X10986786Y-13444643D01*
X11129643Y-13373214D02*
X11129643Y-13673214D01*
X11129643Y-13387500D02*
X11158214Y-13373214D01*
X11215357Y-13373214D01*
X11243928Y-13387500D01*
X11258214Y-13401786D01*
X11272500Y-13430357D01*
X11272500Y-13516071D01*
X11258214Y-13544643D01*
X11243928Y-13558929D01*
X11215357Y-13573214D01*
X11158214Y-13573214D01*
X11129643Y-13558929D01*
X11401071Y-13544643D02*
X11415357Y-13558929D01*
X11401071Y-13573214D01*
X11386786Y-13558929D01*
X11401071Y-13544643D01*
X11401071Y-13573214D01*
X11401071Y-13387500D02*
X11415357Y-13401786D01*
X11401071Y-13416071D01*
X11386786Y-13401786D01*
X11401071Y-13387500D01*
X11401071Y-13416071D01*
X9032500Y-14047500D02*
X9072500Y-14087500D01*
X9072500Y-14047500D02*
X9032500Y-14087500D01*
X9401071Y-13903214D02*
X9429643Y-13903214D01*
X9458214Y-13917500D01*
X9472500Y-13931786D01*
X9486786Y-13960357D01*
X9501071Y-14017500D01*
X9501071Y-14088929D01*
X9486786Y-14146071D01*
X9472500Y-14174643D01*
X9458214Y-14188929D01*
X9429643Y-14203214D01*
X9401071Y-14203214D01*
X9372500Y-14188929D01*
X9358214Y-14174643D01*
X9343929Y-14146071D01*
X9329643Y-14088929D01*
X9329643Y-14017500D01*
X9343929Y-13960357D01*
X9358214Y-13931786D01*
X9372500Y-13917500D01*
X9401071Y-13903214D01*
X9629643Y-14174643D02*
X9643929Y-14188929D01*
X9629643Y-14203214D01*
X9615357Y-14188929D01*
X9629643Y-14174643D01*
X9629643Y-14203214D01*
X9901071Y-14003214D02*
X9901071Y-14203214D01*
X9829643Y-13888929D02*
X9758214Y-14103214D01*
X9943928Y-14103214D01*
X10115357Y-13903214D02*
X10143929Y-13903214D01*
X10172500Y-13917500D01*
X10186786Y-13931786D01*
X10201071Y-13960357D01*
X10215357Y-14017500D01*
X10215357Y-14088929D01*
X10201071Y-14146071D01*
X10186786Y-14174643D01*
X10172500Y-14188929D01*
X10143929Y-14203214D01*
X10115357Y-14203214D01*
X10086786Y-14188929D01*
X10072500Y-14174643D01*
X10058214Y-14146071D01*
X10043929Y-14088929D01*
X10043929Y-14017500D01*
X10058214Y-13960357D01*
X10072500Y-13931786D01*
X10086786Y-13917500D01*
X10115357Y-13903214D01*
X10343929Y-14203214D02*
X10343929Y-14003214D01*
X10343929Y-14031786D02*
X10358214Y-14017500D01*
X10386786Y-14003214D01*
X10429643Y-14003214D01*
X10458214Y-14017500D01*
X10472500Y-14046071D01*
X10472500Y-14203214D01*
X10472500Y-14046071D02*
X10486786Y-14017500D01*
X10515357Y-14003214D01*
X10558214Y-14003214D01*
X10586786Y-14017500D01*
X10601071Y-14046071D01*
X10601071Y-14203214D01*
X10743929Y-14203214D02*
X10743929Y-14003214D01*
X10743929Y-14031786D02*
X10758214Y-14017500D01*
X10786786Y-14003214D01*
X10829643Y-14003214D01*
X10858214Y-14017500D01*
X10872500Y-14046071D01*
X10872500Y-14203214D01*
X10872500Y-14046071D02*
X10886786Y-14017500D01*
X10915357Y-14003214D01*
X10958214Y-14003214D01*
X10986786Y-14017500D01*
X11001071Y-14046071D01*
X11001071Y-14203214D01*
X11586786Y-13888929D02*
X11329643Y-14274643D01*
X11972500Y-13903214D02*
X12001071Y-13903214D01*
X12029643Y-13917500D01*
X12043928Y-13931786D01*
X12058214Y-13960357D01*
X12072500Y-14017500D01*
X12072500Y-14088929D01*
X12058214Y-14146071D01*
X12043928Y-14174643D01*
X12029643Y-14188929D01*
X12001071Y-14203214D01*
X11972500Y-14203214D01*
X11943928Y-14188929D01*
X11929643Y-14174643D01*
X11915357Y-14146071D01*
X11901071Y-14088929D01*
X11901071Y-14017500D01*
X11915357Y-13960357D01*
X11929643Y-13931786D01*
X11943928Y-13917500D01*
X11972500Y-13903214D01*
X12201071Y-14174643D02*
X12215357Y-14188929D01*
X12201071Y-14203214D01*
X12186786Y-14188929D01*
X12201071Y-14174643D01*
X12201071Y-14203214D01*
X12401071Y-13903214D02*
X12429643Y-13903214D01*
X12458214Y-13917500D01*
X12472500Y-13931786D01*
X12486785Y-13960357D01*
X12501071Y-14017500D01*
X12501071Y-14088929D01*
X12486785Y-14146071D01*
X12472500Y-14174643D01*
X12458214Y-14188929D01*
X12429643Y-14203214D01*
X12401071Y-14203214D01*
X12372500Y-14188929D01*
X12358214Y-14174643D01*
X12343928Y-14146071D01*
X12329643Y-14088929D01*
X12329643Y-14017500D01*
X12343928Y-13960357D01*
X12358214Y-13931786D01*
X12372500Y-13917500D01*
X12401071Y-13903214D01*
X12786785Y-14203214D02*
X12615357Y-14203214D01*
X12701071Y-14203214D02*
X12701071Y-13903214D01*
X12672500Y-13946071D01*
X12643928Y-13974643D01*
X12615357Y-13988929D01*
X13043928Y-13903214D02*
X12986785Y-13903214D01*
X12958214Y-13917500D01*
X12943928Y-13931786D01*
X12915357Y-13974643D01*
X12901071Y-14031786D01*
X12901071Y-14146071D01*
X12915357Y-14174643D01*
X12929643Y-14188929D01*
X12958214Y-14203214D01*
X13015357Y-14203214D01*
X13043928Y-14188929D01*
X13058214Y-14174643D01*
X13072500Y-14146071D01*
X13072500Y-14074643D01*
X13058214Y-14046071D01*
X13043928Y-14031786D01*
X13015357Y-14017500D01*
X12958214Y-14017500D01*
X12929643Y-14031786D01*
X12915357Y-14046071D01*
X12901071Y-14074643D01*
X13186786Y-13903214D02*
X13186786Y-13960357D01*
X13301071Y-13903214D02*
X13301071Y-13960357D01*
X13743928Y-14317500D02*
X13729643Y-14303214D01*
X13701071Y-14260357D01*
X13686785Y-14231786D01*
X13672500Y-14188929D01*
X13658214Y-14117500D01*
X13658214Y-14060357D01*
X13672500Y-13988929D01*
X13686785Y-13946071D01*
X13701071Y-13917500D01*
X13729643Y-13874643D01*
X13743928Y-13860357D01*
X14001071Y-13903214D02*
X13858214Y-13903214D01*
X13843928Y-14046071D01*
X13858214Y-14031786D01*
X13886785Y-14017500D01*
X13958214Y-14017500D01*
X13986785Y-14031786D01*
X14001071Y-14046071D01*
X14015357Y-14074643D01*
X14015357Y-14146071D01*
X14001071Y-14174643D01*
X13986785Y-14188929D01*
X13958214Y-14203214D01*
X13886785Y-14203214D01*
X13858214Y-14188929D01*
X13843928Y-14174643D01*
X14372500Y-14203214D02*
X14372500Y-13903214D01*
X14501071Y-14203214D02*
X14501071Y-14046071D01*
X14486785Y-14017500D01*
X14458214Y-14003214D01*
X14415357Y-14003214D01*
X14386785Y-14017500D01*
X14372500Y-14031786D01*
X14686785Y-14203214D02*
X14658214Y-14188929D01*
X14643928Y-14174643D01*
X14629643Y-14146071D01*
X14629643Y-14060357D01*
X14643928Y-14031786D01*
X14658214Y-14017500D01*
X14686785Y-14003214D01*
X14729643Y-14003214D01*
X14758214Y-14017500D01*
X14772500Y-14031786D01*
X14786785Y-14060357D01*
X14786785Y-14146071D01*
X14772500Y-14174643D01*
X14758214Y-14188929D01*
X14729643Y-14203214D01*
X14686785Y-14203214D01*
X14958214Y-14203214D02*
X14929643Y-14188929D01*
X14915357Y-14160357D01*
X14915357Y-13903214D01*
X15186786Y-14188929D02*
X15158214Y-14203214D01*
X15101071Y-14203214D01*
X15072500Y-14188929D01*
X15058214Y-14160357D01*
X15058214Y-14046071D01*
X15072500Y-14017500D01*
X15101071Y-14003214D01*
X15158214Y-14003214D01*
X15186786Y-14017500D01*
X15201071Y-14046071D01*
X15201071Y-14074643D01*
X15058214Y-14103214D01*
X15315357Y-14188929D02*
X15343928Y-14203214D01*
X15401071Y-14203214D01*
X15429643Y-14188929D01*
X15443928Y-14160357D01*
X15443928Y-14146071D01*
X15429643Y-14117500D01*
X15401071Y-14103214D01*
X15358214Y-14103214D01*
X15329643Y-14088929D01*
X15315357Y-14060357D01*
X15315357Y-14046071D01*
X15329643Y-14017500D01*
X15358214Y-14003214D01*
X15401071Y-14003214D01*
X15429643Y-14017500D01*
X15543928Y-14317500D02*
X15558214Y-14303214D01*
X15586786Y-14260357D01*
X15601071Y-14231786D01*
X15615357Y-14188929D01*
X15629643Y-14117500D01*
X15629643Y-14060357D01*
X15615357Y-13988929D01*
X15601071Y-13946071D01*
X15586786Y-13917500D01*
X15558214Y-13874643D01*
X15543928Y-13860357D01*
X9072500Y-14463500D02*
G75*
G03X9072500Y-14463500I-50800J0D01*
G01*
X9501071Y-14599214D02*
X9329643Y-14599214D01*
X9415357Y-14599214D02*
X9415357Y-14299214D01*
X9386786Y-14342071D01*
X9358214Y-14370643D01*
X9329643Y-14384929D01*
X9629643Y-14570643D02*
X9643929Y-14584929D01*
X9629643Y-14599214D01*
X9615357Y-14584929D01*
X9629643Y-14570643D01*
X9629643Y-14599214D01*
X9829643Y-14299214D02*
X9858214Y-14299214D01*
X9886786Y-14313500D01*
X9901071Y-14327786D01*
X9915357Y-14356357D01*
X9929643Y-14413500D01*
X9929643Y-14484929D01*
X9915357Y-14542071D01*
X9901071Y-14570643D01*
X9886786Y-14584929D01*
X9858214Y-14599214D01*
X9829643Y-14599214D01*
X9801071Y-14584929D01*
X9786786Y-14570643D01*
X9772500Y-14542071D01*
X9758214Y-14484929D01*
X9758214Y-14413500D01*
X9772500Y-14356357D01*
X9786786Y-14327786D01*
X9801071Y-14313500D01*
X9829643Y-14299214D01*
X10043929Y-14327786D02*
X10058214Y-14313500D01*
X10086786Y-14299214D01*
X10158214Y-14299214D01*
X10186786Y-14313500D01*
X10201071Y-14327786D01*
X10215357Y-14356357D01*
X10215357Y-14384929D01*
X10201071Y-14427786D01*
X10029643Y-14599214D01*
X10215357Y-14599214D01*
X10343929Y-14599214D02*
X10343929Y-14399214D01*
X10343929Y-14427786D02*
X10358214Y-14413500D01*
X10386786Y-14399214D01*
X10429643Y-14399214D01*
X10458214Y-14413500D01*
X10472500Y-14442071D01*
X10472500Y-14599214D01*
X10472500Y-14442071D02*
X10486786Y-14413500D01*
X10515357Y-14399214D01*
X10558214Y-14399214D01*
X10586786Y-14413500D01*
X10601071Y-14442071D01*
X10601071Y-14599214D01*
X10743929Y-14599214D02*
X10743929Y-14399214D01*
X10743929Y-14427786D02*
X10758214Y-14413500D01*
X10786786Y-14399214D01*
X10829643Y-14399214D01*
X10858214Y-14413500D01*
X10872500Y-14442071D01*
X10872500Y-14599214D01*
X10872500Y-14442071D02*
X10886786Y-14413500D01*
X10915357Y-14399214D01*
X10958214Y-14399214D01*
X10986786Y-14413500D01*
X11001071Y-14442071D01*
X11001071Y-14599214D01*
X11586786Y-14284929D02*
X11329643Y-14670643D01*
X11972500Y-14299214D02*
X12001071Y-14299214D01*
X12029643Y-14313500D01*
X12043928Y-14327786D01*
X12058214Y-14356357D01*
X12072500Y-14413500D01*
X12072500Y-14484929D01*
X12058214Y-14542071D01*
X12043928Y-14570643D01*
X12029643Y-14584929D01*
X12001071Y-14599214D01*
X11972500Y-14599214D01*
X11943928Y-14584929D01*
X11929643Y-14570643D01*
X11915357Y-14542071D01*
X11901071Y-14484929D01*
X11901071Y-14413500D01*
X11915357Y-14356357D01*
X11929643Y-14327786D01*
X11943928Y-14313500D01*
X11972500Y-14299214D01*
X12201071Y-14570643D02*
X12215357Y-14584929D01*
X12201071Y-14599214D01*
X12186786Y-14584929D01*
X12201071Y-14570643D01*
X12201071Y-14599214D01*
X12401071Y-14299214D02*
X12429643Y-14299214D01*
X12458214Y-14313500D01*
X12472500Y-14327786D01*
X12486785Y-14356357D01*
X12501071Y-14413500D01*
X12501071Y-14484929D01*
X12486785Y-14542071D01*
X12472500Y-14570643D01*
X12458214Y-14584929D01*
X12429643Y-14599214D01*
X12401071Y-14599214D01*
X12372500Y-14584929D01*
X12358214Y-14570643D01*
X12343928Y-14542071D01*
X12329643Y-14484929D01*
X12329643Y-14413500D01*
X12343928Y-14356357D01*
X12358214Y-14327786D01*
X12372500Y-14313500D01*
X12401071Y-14299214D01*
X12758214Y-14399214D02*
X12758214Y-14599214D01*
X12686785Y-14284929D02*
X12615357Y-14499214D01*
X12801071Y-14499214D01*
X12972500Y-14299214D02*
X13001071Y-14299214D01*
X13029643Y-14313500D01*
X13043928Y-14327786D01*
X13058214Y-14356357D01*
X13072500Y-14413500D01*
X13072500Y-14484929D01*
X13058214Y-14542071D01*
X13043928Y-14570643D01*
X13029643Y-14584929D01*
X13001071Y-14599214D01*
X12972500Y-14599214D01*
X12943928Y-14584929D01*
X12929643Y-14570643D01*
X12915357Y-14542071D01*
X12901071Y-14484929D01*
X12901071Y-14413500D01*
X12915357Y-14356357D01*
X12929643Y-14327786D01*
X12943928Y-14313500D01*
X12972500Y-14299214D01*
X13186786Y-14299214D02*
X13186786Y-14356357D01*
X13301071Y-14299214D02*
X13301071Y-14356357D01*
X13743928Y-14713500D02*
X13729643Y-14699214D01*
X13701071Y-14656357D01*
X13686785Y-14627786D01*
X13672500Y-14584929D01*
X13658214Y-14513500D01*
X13658214Y-14456357D01*
X13672500Y-14384929D01*
X13686785Y-14342071D01*
X13701071Y-14313500D01*
X13729643Y-14270643D01*
X13743928Y-14256357D01*
X13901071Y-14427786D02*
X13872500Y-14413500D01*
X13858214Y-14399214D01*
X13843928Y-14370643D01*
X13843928Y-14356357D01*
X13858214Y-14327786D01*
X13872500Y-14313500D01*
X13901071Y-14299214D01*
X13958214Y-14299214D01*
X13986785Y-14313500D01*
X14001071Y-14327786D01*
X14015357Y-14356357D01*
X14015357Y-14370643D01*
X14001071Y-14399214D01*
X13986785Y-14413500D01*
X13958214Y-14427786D01*
X13901071Y-14427786D01*
X13872500Y-14442071D01*
X13858214Y-14456357D01*
X13843928Y-14484929D01*
X13843928Y-14542071D01*
X13858214Y-14570643D01*
X13872500Y-14584929D01*
X13901071Y-14599214D01*
X13958214Y-14599214D01*
X13986785Y-14584929D01*
X14001071Y-14570643D01*
X14015357Y-14542071D01*
X14015357Y-14484929D01*
X14001071Y-14456357D01*
X13986785Y-14442071D01*
X13958214Y-14427786D01*
X14372500Y-14599214D02*
X14372500Y-14299214D01*
X14501071Y-14599214D02*
X14501071Y-14442071D01*
X14486785Y-14413500D01*
X14458214Y-14399214D01*
X14415357Y-14399214D01*
X14386785Y-14413500D01*
X14372500Y-14427786D01*
X14686785Y-14599214D02*
X14658214Y-14584929D01*
X14643928Y-14570643D01*
X14629643Y-14542071D01*
X14629643Y-14456357D01*
X14643928Y-14427786D01*
X14658214Y-14413500D01*
X14686785Y-14399214D01*
X14729643Y-14399214D01*
X14758214Y-14413500D01*
X14772500Y-14427786D01*
X14786785Y-14456357D01*
X14786785Y-14542071D01*
X14772500Y-14570643D01*
X14758214Y-14584929D01*
X14729643Y-14599214D01*
X14686785Y-14599214D01*
X14958214Y-14599214D02*
X14929643Y-14584929D01*
X14915357Y-14556357D01*
X14915357Y-14299214D01*
X15186786Y-14584929D02*
X15158214Y-14599214D01*
X15101071Y-14599214D01*
X15072500Y-14584929D01*
X15058214Y-14556357D01*
X15058214Y-14442071D01*
X15072500Y-14413500D01*
X15101071Y-14399214D01*
X15158214Y-14399214D01*
X15186786Y-14413500D01*
X15201071Y-14442071D01*
X15201071Y-14470643D01*
X15058214Y-14499214D01*
X15315357Y-14584929D02*
X15343928Y-14599214D01*
X15401071Y-14599214D01*
X15429643Y-14584929D01*
X15443928Y-14556357D01*
X15443928Y-14542071D01*
X15429643Y-14513500D01*
X15401071Y-14499214D01*
X15358214Y-14499214D01*
X15329643Y-14484929D01*
X15315357Y-14456357D01*
X15315357Y-14442071D01*
X15329643Y-14413500D01*
X15358214Y-14399214D01*
X15401071Y-14399214D01*
X15429643Y-14413500D01*
X15543928Y-14713500D02*
X15558214Y-14699214D01*
X15586786Y-14656357D01*
X15601071Y-14627786D01*
X15615357Y-14584929D01*
X15629643Y-14513500D01*
X15629643Y-14456357D01*
X15615357Y-14384929D01*
X15601071Y-14342071D01*
X15586786Y-14313500D01*
X15558214Y-14270643D01*
X15543928Y-14256357D01*
M02*
