M48
;DRILL file {KiCad 4.0.4-stable} date Monday, 28 November 2016 'PMt' 05:32:24 PM
;FORMAT={-:-/ absolute / metric / decimal}
FMAT,2
METRIC,TZ
T1C0.400
T2C1.016
%
G90
G05
M71
T1
X95.25Y-124.206
X95.504Y-119.507
X96.266Y-126.492
X97.409Y-119.507
X99.441Y-126.238
X101.092Y-119.507
X101.219Y-124.46
X103.505Y-126.238
X104.394Y-126.619
X104.902Y-121.412
X105.918Y-126.619
X107.696Y-122.047
T2
X92.5Y-129.2
X95.04Y-129.2
X97.58Y-129.2
X100.12Y-129.2
X102.66Y-129.2
X105.2Y-129.2
X107.74Y-129.2
X110.28Y-129.2
T0
M30
