G04 #@! TF.FileFunction,Copper,L2,Bot,Signal*
%FSLAX46Y46*%
G04 Gerber Fmt 4.6, Leading zero omitted, Abs format (unit mm)*
G04 Created by KiCad (PCBNEW 4.0.4-stable) date Monday, 28 November 2016 'PMt' 05:32:43 PM*
%MOMM*%
%LPD*%
G01*
G04 APERTURE LIST*
%ADD10C,0.100000*%
%ADD11R,1.727200X2.032000*%
%ADD12O,1.727200X2.032000*%
%ADD13C,0.600000*%
%ADD14C,0.250000*%
G04 APERTURE END LIST*
D10*
D11*
X92500000Y-129200000D03*
D12*
X95040000Y-129200000D03*
X97580000Y-129200000D03*
X100120000Y-129200000D03*
X102660000Y-129200000D03*
X105200000Y-129200000D03*
X107740000Y-129200000D03*
X110280000Y-129200000D03*
D13*
X101092000Y-119507000D03*
X104902000Y-121412000D03*
X97409000Y-119507000D03*
X95504000Y-119507000D03*
X101219000Y-124460000D03*
X99441000Y-126238000D03*
X96266000Y-126492000D03*
X95250000Y-124206000D03*
X107696000Y-122047000D03*
X103505000Y-126238000D03*
X105918000Y-126619000D03*
X104394000Y-126619000D03*
D14*
X101092000Y-119507000D02*
X102997000Y-121412000D01*
X102997000Y-121412000D02*
X104902000Y-121412000D01*
X97409000Y-119507000D02*
X95504000Y-119507000D01*
X101219000Y-124460000D02*
X99441000Y-126238000D01*
X96266000Y-126492000D02*
X96266000Y-127889000D01*
X96266000Y-127889000D02*
X97536000Y-129159000D01*
X97536000Y-129159000D02*
X97580000Y-129200000D01*
X95250000Y-124206000D02*
X98806000Y-127762000D01*
X98806000Y-127762000D02*
X98806000Y-127889000D01*
X98806000Y-127889000D02*
X100076000Y-129159000D01*
X100076000Y-129159000D02*
X100120000Y-129200000D01*
X107696000Y-122047000D02*
X103505000Y-126238000D01*
X105918000Y-126619000D02*
X104394000Y-126619000D01*
M02*
