G04 #@! TF.FileFunction,Legend,Top*
%FSLAX46Y46*%
G04 Gerber Fmt 4.6, Leading zero omitted, Abs format (unit mm)*
G04 Created by KiCad (PCBNEW 4.0.4-stable) date Monday, 28 November 2016 'PMt' 05:32:43 PM*
%MOMM*%
%LPD*%
G01*
G04 APERTURE LIST*
%ADD10C,0.100000*%
%ADD11C,0.200000*%
%ADD12C,0.050000*%
%ADD13C,0.150000*%
G04 APERTURE END LIST*
D10*
D11*
X100225000Y-122300000D02*
X100225000Y-125300000D01*
X100225000Y-125300000D02*
X102575000Y-125300000D01*
X102575000Y-125300000D02*
X102575000Y-122300000D01*
X102575000Y-122300000D02*
X100225000Y-122300000D01*
D12*
G36*
X100200000Y-122300000D02*
X100300000Y-123200000D01*
X101200000Y-122400000D01*
X100200000Y-122300000D01*
G37*
X100200000Y-122300000D02*
X100300000Y-123200000D01*
X101200000Y-122400000D01*
X100200000Y-122300000D01*
X99331420Y-122250000D02*
G75*
G03X99331420Y-122250000I-141420J0D01*
G01*
X99298170Y-122250000D02*
G75*
G03X99298170Y-122250000I-108170J0D01*
G01*
X99279440Y-122250000D02*
G75*
G03X99279440Y-122250000I-89440J0D01*
G01*
X99257080Y-122250000D02*
G75*
G03X99257080Y-122250000I-67080J0D01*
G01*
X99248310Y-122250000D02*
G75*
G03X99248310Y-122250000I-58310J0D01*
G01*
X99240000Y-122260000D02*
G75*
G03X99240000Y-122260000I-40000J0D01*
G01*
X99206050Y-122230000D02*
G75*
G03X99206050Y-122230000I-36050J0D01*
G01*
X99368040Y-122250000D02*
G75*
G03X99368040Y-122250000I-178040J0D01*
G01*
D13*
X102400000Y-118475000D02*
X100400000Y-118475000D01*
X100400000Y-120525000D02*
X102400000Y-120525000D01*
X107000000Y-119425000D02*
X109000000Y-119425000D01*
X109000000Y-121575000D02*
X107000000Y-121575000D01*
X107000000Y-121925000D02*
X109000000Y-121925000D01*
X109000000Y-124075000D02*
X107000000Y-124075000D01*
X107000000Y-124425000D02*
X109000000Y-124425000D01*
X109000000Y-126575000D02*
X107000000Y-126575000D01*
X96000000Y-125375000D02*
X94000000Y-125375000D01*
X94000000Y-123225000D02*
X96000000Y-123225000D01*
X96000000Y-122475000D02*
X94000000Y-122475000D01*
X94000000Y-120325000D02*
X96000000Y-120325000D01*
D12*
X100638095Y-125752381D02*
X100638095Y-126561905D01*
X100685714Y-126657143D01*
X100733333Y-126704762D01*
X100828571Y-126752381D01*
X101019048Y-126752381D01*
X101114286Y-126704762D01*
X101161905Y-126657143D01*
X101209524Y-126561905D01*
X101209524Y-125752381D01*
X102209524Y-126752381D02*
X101638095Y-126752381D01*
X101923809Y-126752381D02*
X101923809Y-125752381D01*
X101828571Y-125895238D01*
X101733333Y-125990476D01*
X101638095Y-126038095D01*
X95474048Y-126667381D02*
X95474048Y-125667381D01*
X95807382Y-126381667D01*
X96140715Y-125667381D01*
X96140715Y-126667381D01*
X97188334Y-126572143D02*
X97140715Y-126619762D01*
X96997858Y-126667381D01*
X96902620Y-126667381D01*
X96759762Y-126619762D01*
X96664524Y-126524524D01*
X96616905Y-126429286D01*
X96569286Y-126238810D01*
X96569286Y-126095952D01*
X96616905Y-125905476D01*
X96664524Y-125810238D01*
X96759762Y-125715000D01*
X96902620Y-125667381D01*
X96997858Y-125667381D01*
X97140715Y-125715000D01*
X97188334Y-125762619D01*
X97616905Y-126667381D02*
X97616905Y-125667381D01*
X97997858Y-125667381D01*
X98093096Y-125715000D01*
X98140715Y-125762619D01*
X98188334Y-125857857D01*
X98188334Y-126000714D01*
X98140715Y-126095952D01*
X98093096Y-126143571D01*
X97997858Y-126191190D01*
X97616905Y-126191190D01*
X98664524Y-126667381D02*
X98855000Y-126667381D01*
X98950239Y-126619762D01*
X98997858Y-126572143D01*
X99093096Y-126429286D01*
X99140715Y-126238810D01*
X99140715Y-125857857D01*
X99093096Y-125762619D01*
X99045477Y-125715000D01*
X98950239Y-125667381D01*
X98759762Y-125667381D01*
X98664524Y-125715000D01*
X98616905Y-125762619D01*
X98569286Y-125857857D01*
X98569286Y-126095952D01*
X98616905Y-126191190D01*
X98664524Y-126238810D01*
X98759762Y-126286429D01*
X98950239Y-126286429D01*
X99045477Y-126238810D01*
X99093096Y-126191190D01*
X99140715Y-126095952D01*
X99712143Y-126095952D02*
X99616905Y-126048333D01*
X99569286Y-126000714D01*
X99521667Y-125905476D01*
X99521667Y-125857857D01*
X99569286Y-125762619D01*
X99616905Y-125715000D01*
X99712143Y-125667381D01*
X99902620Y-125667381D01*
X99997858Y-125715000D01*
X100045477Y-125762619D01*
X100093096Y-125857857D01*
X100093096Y-125905476D01*
X100045477Y-126000714D01*
X99997858Y-126048333D01*
X99902620Y-126095952D01*
X99712143Y-126095952D01*
X99616905Y-126143571D01*
X99569286Y-126191190D01*
X99521667Y-126286429D01*
X99521667Y-126476905D01*
X99569286Y-126572143D01*
X99616905Y-126619762D01*
X99712143Y-126667381D01*
X99902620Y-126667381D01*
X99997858Y-126619762D01*
X100045477Y-126572143D01*
X100093096Y-126476905D01*
X100093096Y-126286429D01*
X100045477Y-126191190D01*
X99997858Y-126143571D01*
X99902620Y-126095952D01*
X100712143Y-125667381D02*
X100807382Y-125667381D01*
X100902620Y-125715000D01*
X100950239Y-125762619D01*
X100997858Y-125857857D01*
X101045477Y-126048333D01*
X101045477Y-126286429D01*
X100997858Y-126476905D01*
X100950239Y-126572143D01*
X100902620Y-126619762D01*
X100807382Y-126667381D01*
X100712143Y-126667381D01*
X100616905Y-126619762D01*
X100569286Y-126572143D01*
X100521667Y-126476905D01*
X100474048Y-126286429D01*
X100474048Y-126048333D01*
X100521667Y-125857857D01*
X100569286Y-125762619D01*
X100616905Y-125715000D01*
X100712143Y-125667381D01*
X101616905Y-126095952D02*
X101521667Y-126048333D01*
X101474048Y-126000714D01*
X101426429Y-125905476D01*
X101426429Y-125857857D01*
X101474048Y-125762619D01*
X101521667Y-125715000D01*
X101616905Y-125667381D01*
X101807382Y-125667381D01*
X101902620Y-125715000D01*
X101950239Y-125762619D01*
X101997858Y-125857857D01*
X101997858Y-125905476D01*
X101950239Y-126000714D01*
X101902620Y-126048333D01*
X101807382Y-126095952D01*
X101616905Y-126095952D01*
X101521667Y-126143571D01*
X101474048Y-126191190D01*
X101426429Y-126286429D01*
X101426429Y-126476905D01*
X101474048Y-126572143D01*
X101521667Y-126619762D01*
X101616905Y-126667381D01*
X101807382Y-126667381D01*
X101902620Y-126619762D01*
X101950239Y-126572143D01*
X101997858Y-126476905D01*
X101997858Y-126286429D01*
X101950239Y-126191190D01*
X101902620Y-126143571D01*
X101807382Y-126095952D01*
X102426429Y-126286429D02*
X103188334Y-126286429D01*
X103664524Y-126143571D02*
X103997858Y-126143571D01*
X104140715Y-126667381D02*
X103664524Y-126667381D01*
X103664524Y-125667381D01*
X104140715Y-125667381D01*
X105283572Y-125619762D02*
X104426429Y-126905476D01*
X105616905Y-126667381D02*
X105616905Y-125667381D01*
X105950239Y-126381667D01*
X106283572Y-125667381D01*
X106283572Y-126667381D01*
X106712143Y-126619762D02*
X106855000Y-126667381D01*
X107093096Y-126667381D01*
X107188334Y-126619762D01*
X107235953Y-126572143D01*
X107283572Y-126476905D01*
X107283572Y-126381667D01*
X107235953Y-126286429D01*
X107188334Y-126238810D01*
X107093096Y-126191190D01*
X106902619Y-126143571D01*
X106807381Y-126095952D01*
X106759762Y-126048333D01*
X106712143Y-125953095D01*
X106712143Y-125857857D01*
X106759762Y-125762619D01*
X106807381Y-125715000D01*
X106902619Y-125667381D01*
X107140715Y-125667381D01*
X107283572Y-125715000D01*
D13*
X96733334Y-118857143D02*
X96685715Y-118904762D01*
X96542858Y-118952381D01*
X96447620Y-118952381D01*
X96304762Y-118904762D01*
X96209524Y-118809524D01*
X96161905Y-118714286D01*
X96114286Y-118523810D01*
X96114286Y-118380952D01*
X96161905Y-118190476D01*
X96209524Y-118095238D01*
X96304762Y-118000000D01*
X96447620Y-117952381D01*
X96542858Y-117952381D01*
X96685715Y-118000000D01*
X96733334Y-118047619D01*
X97685715Y-118952381D02*
X97114286Y-118952381D01*
X97400000Y-118952381D02*
X97400000Y-117952381D01*
X97304762Y-118095238D01*
X97209524Y-118190476D01*
X97114286Y-118238095D01*
X104833334Y-120952381D02*
X104500000Y-120476190D01*
X104261905Y-120952381D02*
X104261905Y-119952381D01*
X104642858Y-119952381D01*
X104738096Y-120000000D01*
X104785715Y-120047619D01*
X104833334Y-120142857D01*
X104833334Y-120285714D01*
X104785715Y-120380952D01*
X104738096Y-120428571D01*
X104642858Y-120476190D01*
X104261905Y-120476190D01*
X105738096Y-119952381D02*
X105261905Y-119952381D01*
X105214286Y-120428571D01*
X105261905Y-120380952D01*
X105357143Y-120333333D01*
X105595239Y-120333333D01*
X105690477Y-120380952D01*
X105738096Y-120428571D01*
X105785715Y-120523810D01*
X105785715Y-120761905D01*
X105738096Y-120857143D01*
X105690477Y-120904762D01*
X105595239Y-120952381D01*
X105357143Y-120952381D01*
X105261905Y-120904762D01*
X105214286Y-120857143D01*
X104833334Y-123452381D02*
X104500000Y-122976190D01*
X104261905Y-123452381D02*
X104261905Y-122452381D01*
X104642858Y-122452381D01*
X104738096Y-122500000D01*
X104785715Y-122547619D01*
X104833334Y-122642857D01*
X104833334Y-122785714D01*
X104785715Y-122880952D01*
X104738096Y-122928571D01*
X104642858Y-122976190D01*
X104261905Y-122976190D01*
X105690477Y-122785714D02*
X105690477Y-123452381D01*
X105452381Y-122404762D02*
X105214286Y-123119048D01*
X105833334Y-123119048D01*
X107833334Y-127952381D02*
X107500000Y-127476190D01*
X107261905Y-127952381D02*
X107261905Y-126952381D01*
X107642858Y-126952381D01*
X107738096Y-127000000D01*
X107785715Y-127047619D01*
X107833334Y-127142857D01*
X107833334Y-127285714D01*
X107785715Y-127380952D01*
X107738096Y-127428571D01*
X107642858Y-127476190D01*
X107261905Y-127476190D01*
X108166667Y-126952381D02*
X108785715Y-126952381D01*
X108452381Y-127333333D01*
X108595239Y-127333333D01*
X108690477Y-127380952D01*
X108738096Y-127428571D01*
X108785715Y-127523810D01*
X108785715Y-127761905D01*
X108738096Y-127857143D01*
X108690477Y-127904762D01*
X108595239Y-127952381D01*
X108309524Y-127952381D01*
X108214286Y-127904762D01*
X108166667Y-127857143D01*
X93333334Y-126752381D02*
X93000000Y-126276190D01*
X92761905Y-126752381D02*
X92761905Y-125752381D01*
X93142858Y-125752381D01*
X93238096Y-125800000D01*
X93285715Y-125847619D01*
X93333334Y-125942857D01*
X93333334Y-126085714D01*
X93285715Y-126180952D01*
X93238096Y-126228571D01*
X93142858Y-126276190D01*
X92761905Y-126276190D01*
X93714286Y-125847619D02*
X93761905Y-125800000D01*
X93857143Y-125752381D01*
X94095239Y-125752381D01*
X94190477Y-125800000D01*
X94238096Y-125847619D01*
X94285715Y-125942857D01*
X94285715Y-126038095D01*
X94238096Y-126180952D01*
X93666667Y-126752381D01*
X94285715Y-126752381D01*
X93333334Y-119852381D02*
X93000000Y-119376190D01*
X92761905Y-119852381D02*
X92761905Y-118852381D01*
X93142858Y-118852381D01*
X93238096Y-118900000D01*
X93285715Y-118947619D01*
X93333334Y-119042857D01*
X93333334Y-119185714D01*
X93285715Y-119280952D01*
X93238096Y-119328571D01*
X93142858Y-119376190D01*
X92761905Y-119376190D01*
X94285715Y-119852381D02*
X93714286Y-119852381D01*
X94000000Y-119852381D02*
X94000000Y-118852381D01*
X93904762Y-118995238D01*
X93809524Y-119090476D01*
X93714286Y-119138095D01*
M02*
