G04 #@! TF.FileFunction,Copper,L2,Bot,Signal*
%FSLAX46Y46*%
G04 Gerber Fmt 4.6, Leading zero omitted, Abs format (unit mm)*
G04 Created by KiCad (PCBNEW 4.0.4-stable) date Tuesday, 29 November 2016 'AMt' 10:24:56 AM*
%MOMM*%
%LPD*%
G01*
G04 APERTURE LIST*
%ADD10C,0.100000*%
%ADD11R,1.727200X2.032000*%
%ADD12O,1.727200X2.032000*%
%ADD13C,0.600000*%
%ADD14C,0.250000*%
G04 APERTURE END LIST*
D10*
D11*
X92500000Y-129200000D03*
D12*
X95040000Y-129200000D03*
X97580000Y-129200000D03*
X100120000Y-129200000D03*
X102660000Y-129200000D03*
X105200000Y-129200000D03*
X107740000Y-129200000D03*
X110280000Y-129200000D03*
D13*
X102600000Y-122000000D03*
X93800000Y-123400000D03*
X96000000Y-123400000D03*
X106800000Y-123400000D03*
X109000000Y-123400000D03*
D14*
X95040000Y-129200000D02*
X95040000Y-127840000D01*
X93600000Y-122000000D02*
X102600000Y-122000000D01*
X92600000Y-123200000D02*
X93600000Y-122000000D01*
X92600000Y-126400000D02*
X92600000Y-123200000D01*
X93400000Y-127200000D02*
X92600000Y-126400000D01*
X94400000Y-127200000D02*
X93400000Y-127200000D01*
X95040000Y-127840000D02*
X94400000Y-127200000D01*
X95040000Y-129200000D02*
X95040000Y-128440000D01*
X97580000Y-127980000D02*
X97580000Y-129200000D01*
X97000000Y-127400000D02*
X97580000Y-127980000D01*
X95400000Y-127400000D02*
X97000000Y-127400000D01*
X93800000Y-125800000D02*
X95400000Y-127400000D01*
X93800000Y-123400000D02*
X93800000Y-125800000D01*
X100120000Y-127720000D02*
X100120000Y-129200000D01*
X99200000Y-126800000D02*
X100120000Y-127720000D01*
X96400000Y-126800000D02*
X99200000Y-126800000D01*
X96000000Y-126400000D02*
X96400000Y-126800000D01*
X96000000Y-123400000D02*
X96000000Y-126400000D01*
X106200000Y-128200000D02*
X105200000Y-129200000D01*
X106200000Y-126600000D02*
X106200000Y-128200000D01*
X106800000Y-126000000D02*
X106200000Y-126600000D01*
X106800000Y-123400000D02*
X106800000Y-126000000D01*
X108400000Y-126600000D02*
X108400000Y-128540000D01*
X109000000Y-126000000D02*
X108400000Y-126600000D01*
X109000000Y-123400000D02*
X109000000Y-126000000D01*
X108400000Y-128540000D02*
X107740000Y-129200000D01*
M02*
